# xmcd
#
# Track frame offsets: 
#        183
#        40440
#        82600
#        112180
#        153155
#        176708
#        221450
#
# Disc length: 3241 seconds
#
# Revision: 2
# Processed by: cddbd v1.5.2PL0 Copyright (c) Steve Scherf et al.
# Submitted via: ExactAudioCopy v0.95a5
#
DISCID=530ca707
DTITLE=Gil Evans and Lee Konitz - Anti-Heroes
DYEAR=1991
DGENRE=Jazz
TTITLE0=Orange was the colour
TTITLE1=The moon struck one
TTITLE2=Drizzling rain
TTITLE3=Gee baby, aint i good to you
TTITLE4=The buzzard song
TTITLE5=How insensitive
TTITLE6=Copenhagen sight
EXTD=
EXTT0=
EXTT1=
EXTT2=
EXTT3=
EXTT4=
EXTT5=
EXTT6=
PLAYORDER=
